# xmcd
#
# Track frame offsets: 
#        150
#        16278
#        33343
#        44944
#        56200
#        69358
#        86512
#        101131
#        112277
#        123113
#        137528
#        152901
#        167762
#        178189
#        191078
#        207378
#        218885
#        230610
#        243860
#        255208
#        265862
#        278458
#        288585
#        299752
#        314595
#
# Disc length: 4405 seconds
#
# Revision: 0
# Processed by: cddbd v1.4PL0 Copyright (c) Steve Scherf et al.
# Submitted via: ExactAudioCopy v0.90a11
#
DISCID=84113319
DTITLE=Various Artist - Southern Style: Zydeco
DYEAR=1900
DGENRE=
TTITLE0=Rockin' Sidney - Jalapeno Lena
TTITLE1=Clifton Chenier - Shake It, Don't Break It
TTITLE2=Rockin' Dopsie - Do Right Tonight
TTITLE3=Boozoo Chavis - Make It To Me
TTITLE4=John Delafose - Joe Pete Is Broke
TTITLE5=Rockin' Sidney - My Toot Toot
TTITLE6=Zydeco Force - I Don't Like It
TTITLE7=Clifton Chenier - Zydeco Jazz
TTITLE8=Boozoo Chavis - Uncle Bud
TTITLE9=John Delafose - Lake Charles Two-Step
TTITLE10=Rockin' Sidney - Mais Yeah Chere
TTITLE11=Zydeco Force - Lonesome Waltz
TTITLE12=Rockin' Dopsie - Zyde-Cool
TTITLE13=Boozoo Chavis - Sugar Bee
TTITLE14=Clifton Chenier - Oh My Lucille
TTITLE15=Rockin' Sidney - You Ain't Nothin' But Fine
TTITLE16=Zydeco Force - Shaggy Dog Two-Step
TTITLE17=Rockin' Dopsie - I Can't Lose With The Stuff I Use
TTITLE18=Boozoo Chavis - Zydeco Homebrew
TTITLE19=Clifton Chenier - Johnny Can't Dance
TTITLE20=Rockin' Dopsie - No Good Woman
TTITLE21=Rockin' Sidney - Cochon De Lait
TTITLE22=Clifton Chenier - Mama Told Papa
TTITLE23=T-Lou and His Zydeco Band - Emily
TTITLE24=Creole Junction - I Got Loaded
EXTD=
EXTT0=
EXTT1=
EXTT2=
EXTT3=
EXTT4=
EXTT5=
EXTT6=
EXTT7=
EXTT8=
EXTT9=
EXTT10=
EXTT11=
EXTT12=
EXTT13=
EXTT14=
EXTT15=
EXTT16=
EXTT17=
EXTT18=
EXTT19=
EXTT20=
EXTT21=
EXTT22=
EXTT23=
EXTT24=
PLAYORDER=
